#!OML:ASF E:\CV Data\Top Level 1\Subject 1\Session 1\player.ASF
:FULLY-SPECIFIED
:DEGREES
478
root 0.0963381 14.7116 44.8278 -166.16 44.7924 -157.694
lowerback 10.5973 -2.19672 2.82441
upperback -1.72927 -2.56839 -0.199311
thorax -7.92749 -1.38287 -1.35554
lowerneck -3.1118 -15.0919 -16.6122
upperneck -36.428 -12.4773 24.3773
head -7.37077 -4.80688 11.7312
rclavicle 4.11484e-014 -1.59028e-015
rhumerus -8.3747 1.06129 -68.2852
rradius 116.446
rwrist -1.96504
rhand -36.3213 27.9767
rfingers 7.12502
rthumb -9.41985 -1.79276
lclavicle 4.11484e-014 -1.59028e-015
lhumerus -21.5362 -11.2426 90.7144
lradius 110.203
lwrist 8.69606
lhand -33.5958 15.0445
lfingers 7.12502
lthumb -6.78936 44.9156
rfemur -13.8977 -0.75378 32.8846
rtibia 61.0076
rfoot -38.628 -19.1427
rtoes -11.8758
lfemur -37.7479 8.58731 0.747194
ltibia 83.723
lfoot -15.0961 7.57635
ltoes -56.7416
479
root 0.0657878 14.8283 44.9007 -166.643 44.7591 -158.278
lowerback 10.3774 -2.08581 2.80829
upperback -1.86596 -2.43548 -0.281819
thorax -7.94456 -1.32199 -1.46174
lowerneck -3.25136 -15.0184 -16.7199
upperneck -36.0573 -12.473 24.1613
head -7.24 -4.78823 11.6164
rclavicle 2.62396e-014 1.43125e-014
rhumerus -5.84266 1.84528 -68.4338
rradius 118.008
rwrist -0.594842
rhand -37.3098 28.8612
rfingers 7.12502
rthumb -10.3735 -0.862873
lclavicle 2.62396e-014 1.43125e-014
lhumerus -19.9968 -13.9944 90.9619
lradius 110.799
lwrist 7.38555
lhand -33.0576 14.2432
lfingers 7.12502
lthumb -6.26985 44.1304
rfemur -13.5484 -0.446902 32.6761
rtibia 59.7319
rfoot -37.808 -19.0042
rtoes -10.7133
lfemur -37.6809 9.12043 0.535042
ltibia 82.6774
lfoot -14.8097 5.44317
ltoes -56.9007
480
root 0.0356428 14.9485 44.9729 -167.159 44.6825 -158.912
lowerback 10.1784 -1.98788 2.74924
upperback -2.01018 -2.32341 -0.353858
thorax -7.97999 -1.26903 -1.52781
lowerneck -3.36246 -14.931 -16.8789
upperneck -35.6514 -12.4779 23.9135
head -7.10117 -4.7712 11.4984
rclavicle 1.81888e-014 -1.74931e-014
rhumerus -3.27514 2.54197 -68.5117
rradius 119.531
rwrist 0.706549
rhand -38.1299 29.7782
rfingers 7.12502
rthumb -11.1645 0.0952038
lclavicle 1.81888e-014 -1.74931e-014
lhumerus -18.2526 -16.3948 90.9202
lradius 111.536
lwrist 6.57254
lhand -32.677 13.3397
lfingers 7.12502
lthumb -5.90235 43.2375
rfemur -13.1654 -0.181131 32.437
rtibia 58.391
rfoot -36.9532 -18.8955
rtoes -9.52969
lfemur -37.5307 9.73369 0.318635
ltibia 81.4947
lfoot -14.6687 3.21328
ltoes -56.8975
481
root 0.00546191 15.0698 45.0446 -167.699 44.5279 -159.573
lowerback 10.007 -1.91357 2.68222
upperback -2.16002 -2.24193 -0.420225
thorax -8.03823 -1.23043 -1.57686
lowerneck -3.46462 -14.8302 -17.0668
upperneck -35.1881 -12.4917 23.6267
head -6.94659 -4.75785 11.3669
rclavicle 1.20662e-013 9.54166e-015
rhumerus -0.675375 3.15362 -68.5375
rradius 120.975
rwrist 2.05154
rhand -38.8081 30.6908
rfingers 7.12502
rthumb -11.8186 1.04432
lclavicle 1.20662e-013 9.54166e-015
lhumerus -16.3195 -18.4385 90.6301
lradius 112.367
lwrist 6.11001
lhand -32.5487 12.4832
lfingers 7.12502
lthumb -5.77853 42.3845
rfemur -12.7542 0.0189245 32.1854
rtibia 57.006
rfoot -36.079 -18.8127
rtoes -8.35586
lfemur -37.3076 10.3708 0.123468
ltibia 80.1931
lfoot -14.6224 0.908912
ltoes -56.6659
482
root -0.0253229 15.1893 45.1155 -168.259 44.2782 -160.249
lowerback 9.85045 -1.87162 2.63804
upperback -2.3056 -2.19988 -0.487715
thorax -8.10349 -1.21194 -1.63272
lowerneck -3.54919 -14.7186 -17.2789
upperneck -34.6788 -12.512 23.3185
head -6.78052 -4.74901 11.2304
rclavicle -4.87022e-014 -1.74931e-014
rhumerus 1.96125 3.68379 -68.535
rradius 122.297
rwrist 3.55236
rhand -39.3764 31.5411
rfingers 7.12502
rthumb -12.3666 1.92687
lclavicle -4.87022e-014 -1.74931e-014
lhumerus -14.1952 -20.1418 90.1068
lradius 113.241
lwrist 5.86739
lhand -32.6975 11.7831
lfingers 7.12502
lthumb -5.92215 41.6804
rfemur -12.3212 0.142663 31.9291
rtibia 55.6004
rfoot -35.2015 -18.7553
rtoes -7.22104
lfemur -37.0142 10.9831 -0.0362044
ltibia 78.7976
lfoot -14.7216 -1.32939
ltoes -56.1354
483
root -0.057044 15.305 45.1851 -168.839 43.9422 -160.928
lowerback 9.70018 -1.85958 2.65606
upperback -2.43411 -2.19207 -0.589196
thorax -8.15994 -1.21374 -1.75382
lowerneck -3.61564 -14.607 -17.4712
upperneck -34.1341 -12.5436 23.0061
head -6.60691 -4.75215 11.0886
rclavicle 8.96519e-014 2.70347e-014
rhumerus 4.61961 4.11582 -68.5507
rradius 123.472
rwrist 5.26658
rhand -39.8858 32.2674
rfingers 7.12502
rthumb -12.8577 2.68347
lclavicle 8.96519e-014 2.70347e-014
lhumerus -11.8786 -21.5641 89.3332
lradius 114.118
lwrist 5.77514
lhand -33.1882 11.3745
lfingers 7.12502
lthumb -6.39587 41.2579
rfemur -11.868 0.201093 31.6676
rtibia 54.1972
rfoot -34.3336 -18.7247
rtoes -6.14726
lfemur -36.6414 11.5426 -0.1551
ltibia 77.3378
lfoot -15.0752 -3.51736
ltoes -55.3077
484
root -0.0902028 15.4158 45.2529 -169.443 43.5265 -161.617
lowerback 9.58446 -1.85979 2.64001
upperback -2.56181 -2.20097 -0.654984
thorax -8.23345 -1.22103 -1.81423
lowerneck -3.68554 -14.4865 -17.6666
upperneck -33.5426 -12.5855 22.6283
head -6.42539 -4.75906 10.9215
rclavicle 6.38099e-014 2.54444e-014
rhumerus 7.2833 4.50263 -68.4564
rradius 124.492
rwrist 7.13967
rhand -40.3919 32.8106
rfingers 7.12502
rthumb -13.3455 3.25801
lclavicle 6.38099e-014 2.54444e-014
lhumerus -9.41342 -22.6689 88.4757
lradius 114.96
lwrist 5.82487
lhand -34.0015 11.261
lfingers 7.12502
lthumb -7.18102 41.1192
rfemur -11.4018 0.200971 31.3916
rtibia 52.8176
rfoot -33.4891 -18.7189
rtoes -5.11635
lfemur -36.1981 12.0249 -0.246915
ltibia 75.8567
lfoot -15.7195 -5.63756
ltoes -54.1623
485
root -0.125067 15.5205 45.3188 -170.056 43.0521 -162.305
lowerback 9.50274 -1.89048 2.67576
upperback -2.69833 -2.24465 -0.744394
thorax -8.34167 -1.24888 -1.92194
lowerneck -3.72759 -14.346 -17.8571
upperneck -32.8962 -12.6179 22.2428
head -6.23552 -4.7689 10.7524
rclavicle 6.67916e-014 1.59028e-015
rhumerus 9.9194 4.86947 -68.3785
rradius 125.349
rwrist 9.10645
rhand -40.8711 33.1521
rfingers 7.12502
rthumb -13.8074 3.63036
lclavicle 6.67916e-014 1.59028e-015
lhumerus -6.86338 -23.466 87.4955
lradius 115.746
lwrist 6.02074
lhand -35.052 11.4467
lfingers 7.12502
lthumb -8.19493 41.2678
rfemur -10.9368 0.172944 31.1062
rtibia 51.4784
rfoot -32.6688 -18.7507
rtoes -4.1157
lfemur -35.7019 12.4291 -0.313994
ltibia 74.4181
lfoot -16.6272 -7.57865
ltoes -52.8407
486
root -0.161833 15.6195 45.3827 -170.673 42.5424 -162.99
lowerback 9.44243 -1.9276 2.7264
upperback -2.83701 -2.29487 -0.841089
thorax -8.46651 -1.28111 -2.04417
lowerneck -3.7567 -14.1942 -18.009
upperneck -32.2173 -12.6483 21.8141
head -6.04794 -4.78271 10.564
rclavicle -7.81224e-014 -1.74931e-014
rhumerus 12.5098 5.21338 -68.2606
rradius 126.062
rwrist 11.0202
rhand -41.3224 33.2862
rfingers 7.12502
rthumb -14.2423 3.7945
lclavicle -7.81224e-014 -1.74931e-014
lhumerus -4.22908 -23.9956 86.4613
lradius 116.449
lwrist 6.45541
lhand -36.2316 11.9172
lfingers 7.12502
lthumb -9.33327 41.6906
rfemur -10.4814 0.14591 30.8116
rtibia 50.1892
rfoot -31.876 -18.8328
rtoes -3.12578
lfemur -35.1697 12.7583 -0.362615
ltibia 73.0994
lfoot -17.7141 -9.04347
ltoes -51.5412
487
root -0.200652 15.7133 45.4445 -171.278 42.0157 -163.668
lowerback 9.38603 -1.98295 2.79766
upperback -2.97902 -2.36636 -0.93567
thorax -8.60002 -1.32492 -2.17209
lowerneck -3.76749 -14.0175 -18.1641
upperneck -31.5119 -12.6547 21.3674
head -5.86341 -4.78789 10.3752
rclavicle 1.72943e-014 5.24792e-014
rhumerus 15.0631 5.59971 -68.107
rradius 126.649
rwrist 12.7364
rhand -41.7164 33.2468
rfingers 7.12502
rthumb -14.622 3.78226
lclavicle 1.72943e-014 5.24792e-014
lhumerus -1.55076 -24.2048 85.4209
lradius 117.039
lwrist 7.17539
lhand -37.3955 12.586
lfingers 7.12502
lthumb -10.4562 42.3059
rfemur -10.0466 0.147154 30.5125
rtibia 48.9543
rfoot -31.1091 -18.9761
rtoes -2.12565
lfemur -34.6259 13.0181 -0.393923
ltibia 71.9852
lfoot -18.7894 -9.68254
ltoes -50.4055
488
root -0.241557 15.8028 45.5048 -171.863 41.4843 -164.341
lowerback 9.29315 -2.055 2.89321
upperback -3.10908 -2.45845 -1.03528
thorax -8.70284 -1.37991 -2.31685
lowerneck -3.75184 -13.8149 -18.3417
upperneck -30.8197 -12.6199 20.9453
head -5.69218 -4.77472 10.2086
rclavicle -6.85807e-014 5.88403e-014
rhumerus 17.5827 6.03087 -67.9181
rradius 127.14
rwrist 14.1433
rhand -42.0226 33.0706
rfingers 7.12502
rthumb -14.9169 3.62774
lclavicle -6.85807e-014 5.88403e-014
lhumerus 1.17873 -24.1216 84.383
lradius 117.491
lwrist 8.24179
lhand -38.4067 13.4045
lfingers 7.12502
lthumb -11.4316 43.0728
rfemur -9.64416 0.198462 30.21
rtibia 47.7729
rfoot -30.3564 -19.1959
rtoes -1.14037
lfemur -34.0922 13.2065 -0.408444
ltibia 71.1438
lfoot -19.6266 -9.19147
ltoes -49.5195
